<svg viewBox="0 0 512 512" xml:space="preserve" xmlns="http://www.w3.org/2000/svg"><path d="M286.201 194.5H172.82c-3.105 0-5.625-2.895-5.625-6s2.52-6 5.625-6h106.613c-2.576-4-4.824-11-6.73-15H172.82c-3.105 0-5.625-2.873-5.625-6 0-3.105 2.52-6 5.625-6h96.42c-2.479-9-3.82-19.604-3.82-30.035 0-19.057 4.219-36.965 12.049-52.965H67.318c-9.27 0-15.818 7.825-15.818 17.097V412.5h231.877c5.74 0 11.244 1.773 15.553 5.527.523.438 1.332 1.037 2.469 2.32l.442.223c3.525 4.229 5.659 9.544 5.659 15.099v24.889c0 14.576 9 35.389 21 35.389v-.285c-19-.281-34-15.865-34-35.104v-24.889c0-2.482-1.315-4.77-2.774-6.521 0 0-.975-.817-1.291-1.058-1.801-1.631-4.429-2.59-7.058-2.59H25.635c-5.67 0-10.135 4.499-10.135 10.169v24.184c0 19.803 15.924 35.647 35.729 35.647h277c9 0 16.243-2.703 22.206-7.385 8.213-6.412 14.065-16.313 14.065-27.563V245.79c-33-6.297-60.498-24.29-78.299-51.29zm-177.166-44.675c6.168 0 11.846 2.049 16.441 5.471l-20.225 20.221-3.646-4.314a6.187 6.187 0 0 0-8.719-.729 6.188 6.188 0 0 0-.73 8.721l7.992 9.449a6.181 6.181 0 0 0 4.725 2.192 6.18 6.18 0 0 0 4.373-1.811l24.283-24.281a27.458 27.458 0 0 1 3.1 12.676c0 15.238-12.355 27.594-27.594 27.594-15.24 0-27.592-12.355-27.592-27.594 0-15.241 12.352-27.595 27.592-27.595zm0 87.807c6.168 0 11.844 2.049 16.441 5.469l-20.225 20.223-3.646-4.314a6.187 6.187 0 0 0-8.719-.729 6.188 6.188 0 0 0-.73 8.721l7.992 9.449a6.188 6.188 0 0 0 9.098.379l24.283-24.279a27.456 27.456 0 0 1 3.1 12.674c0 15.24-12.355 27.594-27.594 27.594-15.24 0-27.592-12.354-27.592-27.594 0-15.24 12.352-27.593 27.592-27.593zm0 142.992c-15.24 0-27.592-12.354-27.592-27.592 0-15.24 12.352-27.594 27.592-27.594 6.168 0 11.844 2.049 16.441 5.469l-20.225 20.223-3.646-4.314a6.187 6.187 0 0 0-8.719-.729 6.185 6.185 0 0 0-.73 8.719l7.992 9.449a6.19 6.19 0 0 0 4.725 2.192 6.18 6.18 0 0 0 4.373-1.811l24.283-24.279a27.452 27.452 0 0 1 3.1 12.676c0 15.238-12.356 27.591-27.594 27.591zM312.439 369.5H172.832c-3.107 0-5.625-2.393-5.625-5.5s2.518-5.5 5.625-5.5h139.607c3.105 0 5.625 2.393 5.625 5.5s-2.519 5.5-5.625 5.5zm0-27H172.832c-3.107 0-5.625-2.393-5.625-5.5s2.518-5.5 5.625-5.5h139.607c3.105 0 5.625 2.393 5.625 5.5s-2.519 5.5-5.625 5.5zm0-61H172.832c-3.107 0-5.625-2.393-5.625-5.5s2.518-5.5 5.625-5.5h139.607c3.105 0 5.625 2.393 5.625 5.5s-2.519 5.5-5.625 5.5zm5.625-32.5c0 3.107-2.52 5.5-5.625 5.5H172.832c-3.107 0-5.625-2.393-5.625-5.5s2.518-5.5 5.625-5.5h139.607c3.106 0 5.625 2.393 5.625 5.5z" fill="#003781" class="fill-000000"></path><path d="M387.27 16.358c-60.549 0-109.645 49.096-109.645 109.666 0 60.547 49.096 109.641 109.645 109.641 60.568 0 109.641-49.094 109.641-109.641-.001-60.57-49.073-109.666-109.641-109.666zm6.23 124.426c0 .09-.022.203-.044.291a6.172 6.172 0 0 1-3.566 5.334 6.32 6.32 0 0 1-2.616.563 6.112 6.112 0 0 1-3.806-1.328c-.066-.045-.135-.113-.203-.156l-32.332-27.496-.046-.023-2.588-2.205a6.149 6.149 0 0 1-.697-8.707c2.205-2.609 5.329-2.924 7.917-.719l23.981 21.061v-64.51c0-3.42 3.578-6.188 7-6.188 3.418 0 7 2.768 7 6.188v77.895z" fill="#003781" class="fill-000000"></path></svg>