<svg data-name="Layer 1" viewBox="0 0 512 512" xmlns="http://www.w3.org/2000/svg"><path d="m486 238.9-75-65.51V87.26a5.1 5.1 0 0 0-5.1-5.1h-68.58a5.1 5.1 0 0 0-5.1 5.1v31.34L258.9 68a5.1 5.1 0 0 0-6 .12L26.26 238.66a5.1 5.1 0 0 0 3.07 9.18H91.5v192a5.1 5.1 0 0 0 10.2 0v-197.1a5.1 5.1 0 0 0-5.1-5.1h-52L256.13 78.47l78.29 54.05a5.1 5.1 0 0 0 8-4.2v-36h58.45v83.35a5.13 5.13 0 0 0 1.74 3.84l66.47 58.09H415.4a5.1 5.1 0 0 0-5.1 5.1v197.12a5.1 5.1 0 0 0 10.2 0v-192h62.17a5.1 5.1 0 0 0 3.33-8.92Z" fill="#003781" class="fill-000000"></path><path d="M334.59 253.7a34.36 34.36 0 0 0 9-34.55 19.5 19.5 0 1 0-22.27-22.85 34.42 34.42 0 0 0-34.7 57.4 37.5 37.5 0 0 0-6.92 1.74 28 28 0 0 0-32.34-6.32 39.32 39.32 0 0 0-17.88-7.12 36.32 36.32 0 1 0-49.62 0 39.9 39.9 0 0 0-34.46 39.47v66.03a26.19 26.19 0 0 0 10.84 21.19l8.11 5.86a9.65 9.65 0 0 1 4 7.8v57.47a5.1 5.1 0 1 0 10.2 0v-57.47a19.88 19.88 0 0 0-8.22-16.07l-8.11-5.86a16 16 0 0 1-6.61-12.92v-66.05a29.68 29.68 0 0 1 29.65-29.64h38.82a29.34 29.34 0 0 1 14.47 3.76 28 28 0 0 0-.36 37.67 30.73 30.73 0 0 0-24 29.95v48.63a20.64 20.64 0 0 0 8.54 16.7l6 4.32a5.76 5.76 0 0 1 2.38 4.66v42.32a5.1 5.1 0 0 0 10.2 0V397.5a16 16 0 0 0-6.6-12.93l-6-4.31a10.44 10.44 0 0 1-4.31-8.44v-48.63a20.51 20.51 0 0 1 20.49-20.5h28.59a20.52 20.52 0 0 1 20.5 20.5v48.63a10.47 10.47 0 0 1-4.31 8.44l-6 4.31a16 16 0 0 0-6.61 12.93v42.32a5.1 5.1 0 1 0 10.2 0V397.5a5.78 5.78 0 0 1 2.38-4.66l6-4.32a20.64 20.64 0 0 0 8.54-16.7v-48.63a30.73 30.73 0 0 0-24-29.95 28 28 0 0 0 5.17-28.87 27.42 27.42 0 0 1 7-.91h36.49A27.58 27.58 0 0 1 356.4 291v62.06a14.75 14.75 0 0 1-6.09 11.9l-7.62 5.5a19 19 0 0 0-7.85 15.35v54a5.1 5.1 0 0 0 10.2 0v-54a8.77 8.77 0 0 1 3.63-7.08l7.62-5.51a25 25 0 0 0 10.31-20.16V291a37.81 37.81 0 0 0-32.01-37.3Zm-156-38.22a26.13 26.13 0 1 1 26.12 26.13 26.15 26.15 0 0 1-26.17-26.13Zm98.53 59.12a17.9 17.9 0 1 1-17.89-17.9 17.91 17.91 0 0 1 17.84 17.9Zm54.11-74.7a9.3 9.3 0 1 1 9.3 9.3 5.42 5.42 0 0 0-1.57.24 34.63 34.63 0 0 0-7.92-8.15 5.36 5.36 0 0 0 .14-1.39Zm-20.57 4.88A24.24 24.24 0 1 1 286.37 229a24.27 24.27 0 0 1 24.24-24.22Z" fill="#003781" class="fill-000000"></path></svg>