<svg viewBox="0 0 30 29.766" xmlns="http://www.w3.org/2000/svg"><g data-name="Layer 2"><path d="M29 27.766h-2v-16a2.002 2.002 0 0 0-2-2h-2a2.002 2.002 0 0 0-2 2v16h-3v-10a2.002 2.002 0 0 0-2-2h-2a2.002 2.002 0 0 0-2 2v10H9v-4a2.002 2.002 0 0 0-2-2H5a2.002 2.002 0 0 0-2 2v4H1a1 1 0 0 0 0 2h28a1 1 0 0 0 0-2ZM4.752 19.496a1.246 1.246 0 0 0 .884-.367L20.498 4.267V6.25a1.25 1.25 0 0 0 2.5 0v-5A1.25 1.25 0 0 0 21.748 0h-5a1.25 1.25 0 0 0 0 2.5h1.982L3.868 17.362a1.25 1.25 0 0 0 .884 2.134Z" fill="#003781" class="fill-000000"></path></g></svg>