<svg viewBox="0 0 30 30" xml:space="preserve" xmlns="http://www.w3.org/2000/svg" enable-background="new 0 0 30 30"><path d="M3.85 15.989C1.145 15.989 1 13.485 1 13" fill="none" stroke="#003781" stroke-width="2" stroke-linecap="round" stroke-linejoin="round" stroke-miterlimit="10" class="stroke-000000"></path><path d="M25.659 15.511a1.916 1.916 0 0 1-.847-1.17 7.569 7.569 0 0 0-.558-1.593 1.962 1.962 0 0 1-.024-1.617L26 7c-2.1 0-3.667.529-4.781 1.143a1.93 1.93 0 0 1-1.754.048C17.856 7.434 15.99 7 14 7 7.925 7 3 11.029 3 16c0 1.989.798 3.821 2.133 5.31l2.242 5.231c.347.809 1.102 1.419 1.982 1.456a2.206 2.206 0 0 0 2.283-2.517l-.01-.07a.479.479 0 0 1 .542-.541c.594.084 1.204.131 1.828.131.624 0 1.235-.047 1.829-.131.328-.046.583.229.538.557-.135.997.37 2.018 1.302 2.398a2.215 2.215 0 0 0 2.903-1.163l1.296-3.023a2.002 2.002 0 0 1 1.388-1.161l2.135-.494 1.104-5.933-.836-.539z" fill="#003781" class="fill-000000"></path><path d="M26.863 19.128c-.308 1.655-1.038 2.94-1.629 2.87-.591-.07-.82-1.47-.512-3.125.308-1.655 1.038-2.94 1.629-2.87.591.07.82 1.469.512 3.125zM14 5c1.023 0 2.014.111 2.97.301.007-.101.03-.198.03-.301a4 4 0 1 0-7.914.822A14.974 14.974 0 0 1 14 5z" fill="#003781" class="fill-000000"></path></svg>