<svg viewBox="0 0 512 512" xml:space="preserve" xmlns="http://www.w3.org/2000/svg" enable-background="new 0 0 512 512"><path d="M254.646 112.167c-1.023.363-1.833.963-2.427 1.799a4.634 4.634 0 0 0-.901 2.769c0 .921.273 1.775.817 2.572.545.787 1.387 1.429 2.51 1.905v-9.045zM337.756 179.577c5.031 5.274 12.854 9.68 22.387 12.895.256.086.513.171.771.255a92.757 92.757 0 0 0 3.446 1.059l.086.025c.856.244 1.726.476 2.604.701.137.036.274.068.41.104.823.208 1.653.408 2.494.6l.178.041c1.879.424 3.805.809 5.771 1.151l.215.037a116.58 116.58 0 0 0 2.963.473c1.023.151 2.055.29 3.097.417l.007.001a130.125 130.125 0 0 0 3.463.373c.894.085 1.791.162 2.695.23.105.007.21.018.314.024.99.072 1.987.131 2.989.182.226.012.451.02.677.03.783.036 1.572.064 2.362.086l.832.022c.999.022 2.001.037 3.009.037s2.01-.015 3.01-.037l.832-.022c.79-.022 1.576-.05 2.359-.086.227-.01.453-.018.68-.03 1-.051 1.997-.11 2.985-.182l.325-.025c.898-.068 1.791-.144 2.678-.228.198-.019.396-.038.596-.059.956-.095 1.908-.197 2.85-.313.014 0 .028-.002.043-.004 1.033-.126 2.06-.265 3.076-.415l.117-.018c.953-.142 1.9-.293 2.838-.455l.249-.042c1.958-.341 3.875-.724 5.746-1.146l.207-.048c.831-.188 1.651-.387 2.462-.592.144-.036.287-.071.428-.108a107.59 107.59 0 0 0 2.596-.698l.109-.033c.73-.209 1.448-.427 2.161-.647.42-.131.837-.266 1.251-.401.27-.088.535-.177.801-.266 9.528-3.215 17.348-7.619 22.381-12.891.163-.17.348-.312.532-.454 3.21-3.559 5.005-7.428 5.005-11.452 0-2.801-.893-5.582-2.66-8.307-6.161 5.047-14.357 9.199-23.894 12.245l-.497.158c-.908.285-1.824.563-2.758.828-.24.069-.49.134-.733.201-.647.179-1.3.354-1.958.523-.422.109-.845.218-1.271.323a120.296 120.296 0 0 1-8.173 1.702c-.276.048-.55.099-.827.146-.611.103-1.228.2-1.846.294-.365.056-.733.109-1.101.162-.937.135-1.878.261-2.829.377a123.359 123.359 0 0 1-3.045.344c-.885.089-1.774.172-2.67.246-.403.033-.81.059-1.215.089-.764.056-1.531.106-2.302.15-.335.019-.669.04-1.005.058a154.05 154.05 0 0 1-3.213.125l-.84.021c-1.154.026-2.314.045-3.48.045a154.714 154.714 0 0 1-4.318-.066 154.339 154.339 0 0 1-3.216-.125c-.334-.018-.665-.039-.999-.058-.775-.044-1.549-.095-2.318-.151-.4-.029-.802-.056-1.199-.088-.9-.073-1.795-.157-2.687-.247-.534-.053-1.065-.112-1.597-.171-.492-.055-.979-.114-1.467-.175-.932-.114-1.854-.238-2.77-.37-.381-.055-.764-.11-1.144-.167-.61-.093-1.22-.189-1.822-.29-.316-.053-.629-.111-.943-.166a131.035 131.035 0 0 1-5.818-1.156 105.077 105.077 0 0 1-3.514-.85c-.661-.17-1.315-.345-1.964-.524-.245-.068-.494-.132-.736-.202-.928-.264-1.84-.541-2.744-.824-.174-.055-.348-.109-.52-.165-9.531-3.045-17.721-7.197-23.879-12.244-1.77 2.724-2.664 5.506-2.664 8.31 0 4.01 1.783 7.868 4.974 11.417.2.152.399.308.575.491z" fill="#003781" class="fill-000000"></path><path d="M337.756 149.293c5.009 5.25 12.787 9.64 22.267 12.85.343.115.688.23 1.036.343.348.113.695.226 1.049.336a100.576 100.576 0 0 0 5.246 1.479c.891.226 1.793.444 2.707.652l.014.002c1.912.433 3.873.824 5.875 1.171l.105.018c2.93.505 5.948.913 9.039 1.221l.531.052c.914.087 1.833.166 2.759.235l.261.02c.995.072 1.998.133 3.006.183.221.011.443.019.664.029a131.392 131.392 0 0 0 3.201.108c1 .022 2.002.037 3.01.037 1.009 0 2.011-.015 3.01-.037.277-.006.554-.015.831-.022.791-.022 1.579-.05 2.362-.086.226-.01.451-.019.676-.03 1.004-.05 2.004-.11 2.996-.181.097-.007.191-.017.287-.023a141.05 141.05 0 0 0 2.727-.232l.558-.054a129.456 129.456 0 0 0 6.044-.743c.995-.146 1.979-.304 2.953-.472l.151-.025a118.75 118.75 0 0 0 5.841-1.164l.057-.014c.897-.203 1.781-.417 2.656-.639l.268-.068c1.714-.438 3.381-.913 5.001-1.417.351-.109.697-.222 1.043-.334.354-.115.706-.232 1.056-.35 9.477-3.209 17.253-7.599 22.264-12.846.161-.168.344-.308.525-.45 3.215-3.559 5.012-7.43 5.012-11.455 0-2.801-.893-5.582-2.66-8.307-6.175 5.058-14.393 9.217-23.955 12.265l-.367.116c-.942.296-1.895.585-2.862.86-.184.052-.372.101-.558.153a110.841 110.841 0 0 1-3.33.873c-.785.193-1.576.38-2.376.56-.509.113-1.024.221-1.538.329a126.387 126.387 0 0 1-4.074.785c-.357.063-.715.128-1.074.189-.596.1-1.195.194-1.797.286-.391.06-.784.116-1.178.173-.907.13-1.819.253-2.741.365a131.802 131.802 0 0 1-5.758.595c-.397.033-.799.059-1.197.088-.77.056-1.541.106-2.314.151-.336.019-.668.04-1.004.058-1.066.053-2.139.094-3.217.125l-.832.021c-1.156.026-2.316.044-3.484.044a154.847 154.847 0 0 1-4.315-.065 154.532 154.532 0 0 1-3.218-.125c-.334-.018-.666-.039-.998-.058a145.19 145.19 0 0 1-2.328-.152c-.396-.028-.793-.055-1.187-.087a145.81 145.81 0 0 1-4.28-.418 143.365 143.365 0 0 1-4.203-.539c-.402-.059-.805-.116-1.205-.178-.598-.091-1.192-.185-1.783-.284-.385-.065-.766-.134-1.148-.201a131.988 131.988 0 0 1-4.017-.776c-.51-.107-1.021-.213-1.524-.327-.801-.18-1.594-.367-2.382-.56-.393-.097-.782-.197-1.171-.297a109.51 109.51 0 0 1-2.141-.572c-.191-.053-.387-.104-.578-.158-.961-.273-1.904-.559-2.839-.853l-.403-.128c-9.554-3.046-17.764-7.205-23.934-12.261-1.77 2.724-2.664 5.506-2.664 8.31 0 4.012 1.786 7.87 4.98 11.42.196.152.392.304.566.486zM398.525 258.884c35.947 0 66.316-14.036 66.316-30.65 0-2.796-.893-5.577-2.662-8.303-6.146 5.035-14.313 9.179-23.814 12.222a104.527 104.527 0 0 1-3.163.962c-.358.103-.722.2-1.083.299a111.894 111.894 0 0 1-3.108.812c-.501.123-1.007.239-1.513.356a117.263 117.263 0 0 1-3.406.736c-1.154.232-2.324.45-3.508.653-.162.028-.32.058-.482.084a123.913 123.913 0 0 1-2.891.449c-.985.143-1.979.275-2.979.398-.446.055-.892.11-1.34.16a141.907 141.907 0 0 1-4.302.421c-.411.033-.825.062-1.238.092-.755.055-1.514.104-2.274.148-.341.02-.682.042-1.024.059a146.573 146.573 0 0 1-4.044.146 148.94 148.94 0 0 1-3.482.045 149.012 149.012 0 0 1-4.319-.066c-1.074-.03-2.144-.071-3.208-.125-.342-.017-.682-.039-1.022-.059-.763-.043-1.524-.093-2.282-.149-.409-.029-.821-.058-1.229-.091a132.896 132.896 0 0 1-5.661-.583c-.988-.121-1.97-.253-2.943-.394-.336-.049-.67-.096-1.002-.146-.639-.098-1.272-.198-1.902-.304-.186-.031-.369-.065-.553-.097a130.233 130.233 0 0 1-4.411-.84 130.425 130.425 0 0 1-3.953-.894 112.22 112.22 0 0 1-3.097-.808c-.374-.103-.749-.204-1.118-.31a114.301 114.301 0 0 1-3.157-.961c-9.495-3.043-17.653-7.188-23.794-12.22-1.771 2.725-2.666 5.506-2.666 8.306-.004 16.616 30.366 30.652 66.314 30.652z" fill="#003781" class="fill-000000"></path><path d="M337.756 209.859c5.031 5.274 12.854 9.68 22.387 12.895a104.772 104.772 0 0 0 2.039.662c.719.223 1.441.443 2.178.652l.086.025c.856.244 1.726.476 2.604.701.137.036.274.068.41.104.823.208 1.653.408 2.494.6l.178.041c1.879.424 3.805.809 5.771 1.151l.215.037a116.58 116.58 0 0 0 2.963.473c1.023.151 2.055.29 3.097.417l.007.001a124.406 124.406 0 0 0 3.463.373c.894.085 1.791.162 2.695.23.105.007.21.017.314.025.99.071 1.987.131 2.989.181.226.012.451.02.677.03.783.036 1.572.064 2.362.086l.832.022c.999.022 2.001.037 3.009.037s2.01-.015 3.01-.037l.832-.022c.79-.022 1.576-.05 2.359-.086.227-.01.453-.018.68-.03 1-.05 1.997-.11 2.985-.181l.325-.026c.898-.068 1.791-.144 2.678-.228.198-.019.396-.038.596-.059.956-.095 1.908-.197 2.85-.313.014 0 .028-.002.043-.004 1.033-.126 2.06-.265 3.076-.415l.117-.018c.953-.142 1.9-.293 2.838-.455l.249-.042c1.958-.341 3.875-.724 5.746-1.146l.207-.048c.831-.188 1.651-.387 2.462-.592.144-.036.287-.071.428-.108a107.59 107.59 0 0 0 2.596-.698l.109-.033c.73-.209 1.448-.427 2.161-.647.42-.131.837-.266 1.251-.401.27-.088.535-.177.801-.266 9.528-3.215 17.348-7.619 22.381-12.891.163-.17.348-.312.532-.454 3.21-3.559 5.005-7.428 5.005-11.452 0-2.796-.893-5.577-2.662-8.303-6.146 5.035-14.313 9.179-23.814 12.222a104.527 104.527 0 0 1-3.163.962c-.358.103-.722.2-1.083.299a111.894 111.894 0 0 1-3.108.812c-.501.123-1.007.239-1.513.356a117.263 117.263 0 0 1-3.406.736c-1.154.232-2.324.45-3.508.653-.162.027-.32.058-.482.084a123.913 123.913 0 0 1-2.891.449c-.985.143-1.979.275-2.979.398-.446.055-.892.11-1.34.16a141.907 141.907 0 0 1-4.302.421c-.411.033-.825.062-1.238.092-.755.055-1.514.104-2.274.148-.341.019-.682.041-1.024.058a153.108 153.108 0 0 1-4.044.146 148.94 148.94 0 0 1-3.482.045 149.012 149.012 0 0 1-4.319-.066c-1.074-.03-2.144-.071-3.208-.125-.342-.017-.682-.039-1.022-.058-.763-.044-1.524-.094-2.282-.149-.409-.029-.821-.058-1.229-.091a132.896 132.896 0 0 1-5.661-.583c-.988-.121-1.97-.253-2.943-.394-.336-.049-.67-.096-1.002-.146-.639-.098-1.272-.198-1.902-.304-.186-.031-.369-.065-.553-.097a130.233 130.233 0 0 1-4.411-.84 130.425 130.425 0 0 1-3.953-.894 112.22 112.22 0 0 1-3.097-.808c-.374-.103-.749-.204-1.118-.31a114.301 114.301 0 0 1-3.157-.961c-9.495-3.044-17.653-7.188-23.794-12.22-1.771 2.725-2.666 5.506-2.666 8.306 0 4.01 1.783 7.868 4.974 11.417.194.155.393.31.569.494zM396.651 61.692c-1.032.363-1.833.961-2.435 1.799a4.663 4.663 0 0 0-.893 2.769c0 .921.264 1.774.816 2.57.545.782 1.381 1.431 2.511 1.907v-9.045zM403.659 87.662c.834-.961 1.247-2.096 1.247-3.41 0-1.159-.348-2.169-1.049-3.007-.686-.845-1.825-1.486-3.402-1.947v10.237c1.314-.281 2.387-.905 3.204-1.873zM337.756 119.012c4.725 4.952 11.91 9.141 20.666 12.293.064.023.124.047.188.069.43.154.867.301 1.303.45a111.293 111.293 0 0 0 2.132.696c1.662.519 3.372 1.006 5.131 1.454l.098.025c2.795.71 5.703 1.331 8.707 1.851l.033.006c2.944.509 5.982.919 9.09 1.228.17.018.342.034.512.05a131.1 131.1 0 0 0 2.779.236l.246.02c.998.072 2.004.133 3.014.183.217.011.436.019.654.028.789.036 1.582.065 2.378.087.276.008.552.016.829.022 1 .022 2.002.037 3.01.037 1.009 0 2.011-.015 3.01-.037.277-.006.554-.015.83-.022.793-.022 1.584-.05 2.371-.086l.664-.029a137.94 137.94 0 0 0 3.003-.183c.092-.006.183-.015.272-.021a140.325 140.325 0 0 0 3.285-.286c3.094-.309 6.117-.717 9.049-1.224l.079-.013a115.682 115.682 0 0 0 8.665-1.842l.135-.034c1.754-.447 3.459-.934 5.115-1.451.288-.089.572-.182.857-.273.434-.14.863-.284 1.289-.427.428-.146.855-.291 1.277-.441.086-.03.17-.062.256-.093 8.732-3.151 15.902-7.332 20.621-12.273.156-.163.334-.298.51-.435 3.225-3.565 5.027-7.443 5.027-11.477 0-2.797-.893-5.579-2.662-8.305-6.142 5.032-14.304 9.174-23.799 12.218l-.695.221c-.803.25-1.611.496-2.432.731-.388.112-.781.218-1.173.326a109.342 109.342 0 0 1-4.504 1.137 111.732 111.732 0 0 1-3.47.751c-1.185.239-2.384.462-3.599.67l-.4.07c-.641.107-1.285.209-1.935.309l-.948.139c-.994.144-1.996.278-3.007.401a136.534 136.534 0 0 1-2.986.336c-.876.089-1.756.17-2.642.244-.413.033-.83.061-1.246.091-.754.055-1.51.104-2.268.148-.342.019-.683.041-1.026.059a153.108 153.108 0 0 1-4.044.146c-1.156.026-2.315.044-3.482.044a154.73 154.73 0 0 1-4.319-.065c-1.074-.03-2.144-.072-3.208-.125-.343-.018-.682-.04-1.023-.059-.762-.044-1.52-.093-2.275-.148-.412-.03-.827-.059-1.238-.091a149.543 149.543 0 0 1-4.303-.421 144.886 144.886 0 0 1-4.314-.557c-.327-.047-.654-.094-.979-.144-.643-.098-1.282-.199-1.918-.306-.157-.026-.313-.056-.472-.083a131.241 131.241 0 0 1-4.466-.85c-.849-.177-1.688-.362-2.52-.556a104.57 104.57 0 0 1-1.441-.339 125.835 125.835 0 0 1-3.067-.8c-.404-.111-.81-.221-1.209-.336-.807-.231-1.602-.472-2.391-.718l-.729-.231c-9.487-3.044-17.642-7.186-23.778-12.215-1.771 2.726-2.666 5.507-2.666 8.308 0 4.02 1.791 7.886 4.996 11.441.192.146.384.294.553.471z" fill="#003781" class="fill-000000"></path><path d="M337.756 88.723c5.033 5.275 12.857 9.683 22.395 12.898.25.083.5.167.753.249a96.388 96.388 0 0 0 3.436 1.057l.109.033c.853.243 1.721.475 2.598.699l.417.106c.821.207 1.649.407 2.489.597.06.014.118.029.178.042 1.879.424 3.805.809 5.771 1.151.072.012.145.023.215.037.953.164 1.915.318 2.885.461l.078.012c1.023.151 2.055.291 3.097.417l.007.001a124.567 124.567 0 0 0 3.468.373c.892.085 1.787.162 2.689.229.105.008.211.019.315.026.99.071 1.987.131 2.989.181.226.012.451.02.677.03.783.036 1.572.064 2.362.086.277.007.554.016.832.022.999.022 2.001.037 3.009.037s2.01-.015 3.01-.037c.276-.006.555-.015.832-.022.79-.022 1.576-.05 2.359-.086l.68-.03c1-.05 1.997-.11 2.985-.181l.327-.026c.896-.067 1.786-.144 2.671-.228l.604-.059c.955-.095 1.904-.198 2.846-.313l.043-.005c1.033-.126 2.06-.265 3.076-.415l.117-.017c.953-.142 1.9-.294 2.838-.455l.249-.042c1.958-.341 3.875-.724 5.746-1.146l.207-.048c.829-.188 1.647-.386 2.458-.591.146-.037.291-.072.436-.11.871-.223 1.732-.454 2.58-.694l.142-.041a85.4 85.4 0 0 0 3.402-1.047c.263-.085.522-.172.783-.259 9.531-3.215 17.354-7.621 22.389-12.893.164-.171.35-.314.535-.457 3.208-3.557 5.002-7.425 5.002-11.447 0-16.614-30.369-30.649-66.316-30.649-35.948 0-66.318 14.035-66.318 30.649 0 4.008 1.782 7.864 4.971 11.412.201.151.399.308.577.493zm51.417-14.971c-1.593-1.979-2.385-4.369-2.385-7.188 0-2.861.899-5.258 2.698-7.197 1.791-1.947 4.178-3.066 7.165-3.353v-2.57h3.804v2.57c2.791.33 5.004 1.274 6.653 2.835 1.644 1.56 2.7 3.648 3.155 6.269l-6.646.855c-.413-2.054-1.462-3.443-3.163-4.173v10.204c4.21 1.116 7.075 2.595 8.595 4.385 1.526 1.799 2.284 4.116 2.284 6.935 0 3.155-.957 5.8-2.871 7.959-1.924 2.16-4.59 3.5-8.008 4.034v4.879h-3.804v-4.821c-3.005-.372-5.439-1.472-7.33-3.337-1.883-1.874-3.079-4.51-3.607-7.912l6.812-.803c.271 1.395.799 2.586 1.566 3.598.769 1.01 1.617 1.733 2.56 2.185V78.172c-3.409-.97-5.901-2.44-7.478-4.42zM262.899 134.728c0-1.159-.347-2.169-1.04-3.007-.693-.847-1.823-1.486-3.408-1.947v10.237c1.313-.278 2.385-.904 3.211-1.875.824-.961 1.237-2.094 1.237-3.408zM152.091 399.708c-8.589-19.982-39.012-71.155-51.711-83.297l-.003-.002c-5.981-5.707-9.646-8.253-11.879-8.253-.41 0-1.099.069-2.331.676-10.289 5.076-35.983 22.859-38.388 27.887-1.326 2.774-.483 5.195 1.547 10.406 1.059 2.717 2.259 5.797 3.194 9.525 4.258 16.936 3.4 36.787 2.57 55.986-.853 19.724-1.658 38.354 3.007 52 .183.532.409 1.195 2.483 1.195 2.805 0 7.127-1.464 11.013-3.728 5.198-3.031 15.165-7.781 26.705-13.282 12.082-5.759 25.776-12.287 36.876-18.217 17.119-9.146 19.503-12.406 19.807-12.968 1.632-3.596.676-9.615-2.853-17.86-.01-.023-.026-.044-.037-.068zm-46.575 15.903c-5.563.624-10.581-3.36-11.208-8.897-.635-5.538 3.368-10.533 8.932-11.164 5.563-.626 10.589 3.36 11.217 8.895.626 5.538-3.37 10.533-8.941 11.166zM464.846 304.974c-.873-11.913-18.327-16.235-29.846-16.235-1.949 0-3.771.114-5.412.339-25.816 3.567-64.789 24.245-86.648 41.624a19.298 19.298 0 0 1-4.27 5.558c-6.332 5.698-16.663 7.845-28.793 7.846-19.848 0-44.513-5.743-64.376-11.068-1.31-.351-2.428-.651-3.325-.884a4.686 4.686 0 0 1 2.354-9.07c.917.238 2.059.545 3.397.903 8.68 2.326 26.743 7.168 44.297 9.474 25.643 3.362 36-.407 40.176-4.165 1.844-1.66 2.938-3.791 3.301-6.444.005-.037.008-.076.014-.114.059-.463.093-.945.108-1.44.002-.071.007-.141.009-.213a18.442 18.442 0 0 0-.076-1.947 23.322 23.322 0 0 0-.199-1.697l-.002-.008c-4.145-26.237-77.559-40.747-126.719-40.747-9.396 0-17.143.549-22.404 1.587-21.036 4.158-50.147 21.145-71.402 33.547-1.364.796-2.698 1.575-3.999 2.332l.037.044c14.603 17.274 38.595 58.395 47.782 77.73 18.313-6.714 34.497-9.982 49.36-9.982 17.405 0 31.292 4.448 44.722 8.75 14.074 4.508 28.627 9.168 48.129 9.168 3.159 0 6.421-.122 9.696-.365 16.826-1.249 55.449-17.942 91.838-39.694 43.862-26.223 62.87-46.432 62.251-54.829zM256.519 248.795c35.948 0 66.317-14.035 66.317-30.647 0-2.802-.893-5.583-2.66-8.307-6.146 5.036-14.316 9.182-23.82 12.226l-.652.207c-.834.261-1.678.517-2.531.761-.346.099-.695.192-1.043.288a124.161 124.161 0 0 1-3.117.813c-.523.128-1.053.251-1.583.373a116.865 116.865 0 0 1-3.351.723c-1.137.228-2.286.442-3.449.642-.18.031-.358.064-.539.094a137.784 137.784 0 0 1-11.509 1.427c-.408.033-.822.062-1.234.091-.756.056-1.514.105-2.275.149-.342.02-.682.042-1.026.059a153.108 153.108 0 0 1-4.043.146c-1.156.027-2.315.045-3.482.045a149.026 149.026 0 0 1-4.318-.066c-1.075-.03-2.145-.071-3.209-.125-.341-.017-.679-.039-1.019-.059-.766-.044-1.528-.093-2.289-.149-.408-.03-.817-.058-1.223-.091a134.69 134.69 0 0 1-5.691-.586 134.22 134.22 0 0 1-3.938-.541c-.625-.095-1.248-.193-1.866-.296-.247-.042-.492-.087-.738-.13a124.129 124.129 0 0 1-8.231-1.713c-.443-.109-.882-.221-1.321-.335-.626-.161-1.247-.328-1.864-.499-.272-.075-.547-.146-.816-.223-.915-.26-1.814-.534-2.707-.813l-.56-.178c-9.522-3.045-17.708-7.196-23.862-12.24-1.767 2.722-2.658 5.503-2.658 8.306-.002 16.613 30.363 30.648 66.307 30.648z" fill="#003781" class="fill-000000"></path><path d="M195.748 199.771c5.012 5.252 12.791 9.643 22.27 12.854.343.115.687.23 1.034.343.351.113.703.228 1.058.338 1.62.503 3.284.979 4.995 1.416l.269.067c.877.223 1.763.437 2.661.641l.049.011c1.902.431 3.854.82 5.846 1.166l.144.024a126.2 126.2 0 0 0 2.983.477c1.972.291 3.982.536 6.022.739l.552.054c.902.085 1.809.164 2.723.231l.294.023c.992.072 1.991.131 2.995.182.223.012.447.02.67.03a131.614 131.614 0 0 0 3.197.107c.999.022 2.001.037 3.01.037 1.008 0 2.01-.015 3.009-.037l.832-.021c.791-.022 1.578-.051 2.361-.086.226-.01.453-.018.678-.03 1.002-.051 1.998-.11 2.987-.182l.321-.025a128.57 128.57 0 0 0 3.276-.287 129.018 129.018 0 0 0 2.891-.317 126.35 126.35 0 0 0 3.079-.415l.109-.017c.959-.142 1.908-.294 2.849-.457.08-.014.161-.026.241-.041 1.961-.341 3.881-.724 5.754-1.147l.195-.045c.836-.19 1.662-.39 2.479-.596.139-.035.277-.068.415-.104a103.69 103.69 0 0 0 2.603-.701l.078-.023a91.216 91.216 0 0 0 2.193-.658c.417-.129.829-.263 1.239-.396.273-.089.545-.179.815-.271 9.525-3.214 17.344-7.617 22.375-12.888.163-.171.35-.314.534-.457 3.209-3.558 5.003-7.426 5.003-11.449 0-2.806-.892-5.587-2.658-8.307-6.168 5.053-14.375 9.209-23.924 12.255l-.438.139c-.924.29-1.855.573-2.804.843-.218.062-.439.119-.657.18-.677.187-1.358.37-2.047.546-.406.104-.813.209-1.225.311-.774.19-1.555.375-2.342.551-.522.118-1.053.228-1.582.339a130.285 130.285 0 0 1-4.137.796c-.324.057-.646.115-.973.17-.603.101-1.21.196-1.819.29-.378.058-.758.111-1.138.167a148.768 148.768 0 0 1-4.234.545 136.507 136.507 0 0 1-4.287.419c-.4.033-.806.06-1.208.089-.767.057-1.536.107-2.31.151-.334.02-.668.041-1.004.058a153.782 153.782 0 0 1-4.051.145c-1.156.027-2.315.045-3.481.045-1.167 0-2.326-.018-3.482-.045l-.836-.02a147.726 147.726 0 0 1-3.216-.126c-.333-.016-.663-.037-.996-.057-.778-.044-1.553-.095-2.324-.152-.398-.028-.797-.055-1.193-.088a136.425 136.425 0 0 1-5.777-.596c-.905-.111-1.803-.231-2.694-.359-.407-.059-.813-.117-1.218-.18a119.37 119.37 0 0 1-1.773-.282c-.4-.067-.797-.139-1.194-.209a125.966 125.966 0 0 1-3.986-.771c-.504-.106-1.008-.211-1.506-.323-.807-.18-1.605-.369-2.397-.563-.385-.095-.766-.193-1.147-.291-.737-.189-1.469-.385-2.192-.586-.176-.049-.355-.095-.53-.146-.974-.276-1.93-.566-2.878-.865l-.347-.11c-9.567-3.048-17.789-7.208-23.964-12.269-1.765 2.72-2.656 5.501-2.656 8.306 0 4.022 1.793 7.89 5 11.447.185.147.373.291.537.463z" fill="#003781" class="fill-000000"></path><path d="M195.748 169.489c4.705 4.931 11.851 9.103 20.555 12.252l.333.122c.406.145.82.285 1.233.426.448.152.898.302 1.354.448.265.086.529.171.796.255 1.674.522 3.397 1.013 5.17 1.465l.057.015c2.803.713 5.722 1.335 8.736 1.857l.019.004c2.947.509 5.987.92 9.097 1.23l.51.049c.922.088 1.85.167 2.784.237.081.005.161.013.242.02.998.072 2.002.131 3.013.183.219.011.439.02.658.028.788.037 1.58.065 2.375.087l.828.021c1 .022 2.002.037 3.011.037s2.011-.015 3.009-.037c.278-.006.555-.015.832-.021.793-.022 1.582-.051 2.368-.086.222-.01.444-.018.667-.029 1.006-.051 2.009-.11 3.004-.183.089-.007.178-.015.268-.021.922-.068 1.839-.147 2.75-.234l.538-.052a127.453 127.453 0 0 0 9.132-1.238c2.98-.516 5.865-1.131 8.638-1.835l.175-.044c1.739-.444 3.43-.926 5.075-1.438.313-.098.623-.199.933-.299a87.47 87.47 0 0 0 1.191-.395c.455-.155.91-.308 1.357-.468l.103-.038c8.787-3.156 16.001-7.354 20.741-12.319.16-.167.343-.307.523-.447 3.215-3.56 5.014-7.432 5.014-11.458 0-2.806-.892-5.587-2.658-8.307-6.182 5.065-14.412 9.228-23.991 12.277-.098.031-.196.063-.294.092-.961.303-1.932.598-2.92.878-.154.044-.313.085-.468.129-.746.208-1.5.409-2.261.604-.37.095-.74.19-1.115.283-.799.196-1.604.387-2.418.569-.492.11-.99.214-1.488.318a124.7 124.7 0 0 1-3.956.766c-.413.072-.823.147-1.239.217-.587.098-1.177.191-1.77.282-.406.063-.814.121-1.223.18-.887.128-1.779.247-2.68.357a122.748 122.748 0 0 1-3.096.351c-.894.09-1.791.174-2.694.247-.395.033-.792.06-1.189.088-.773.057-1.55.108-2.329.152-.331.02-.66.041-.993.057a147.849 147.849 0 0 1-4.05.146c-1.156.027-2.318.045-3.485.045-1.168 0-2.329-.018-3.486-.045l-.828-.02a148.034 148.034 0 0 1-3.222-.126c-.33-.016-.656-.037-.985-.056-.785-.045-1.566-.096-2.345-.153-.392-.029-.785-.055-1.175-.087a138.148 138.148 0 0 1-5.831-.603c-.87-.107-1.732-.222-2.588-.345a131.601 131.601 0 0 1-3.026-.466c-.493-.082-.981-.171-1.471-.258-.804-.145-1.602-.294-2.392-.451-.47-.093-.938-.189-1.404-.288-.472-.1-.945-.198-1.412-.302a119.47 119.47 0 0 1-5.92-1.489c-.113-.032-.228-.062-.34-.093a109.263 109.263 0 0 1-2.993-.9l-.203-.065c-9.596-3.049-17.842-7.218-24.031-12.29-1.765 2.72-2.656 5.501-2.656 8.306 0 4.025 1.796 7.896 5.01 11.456.18.141.364.28.526.45z" fill="#003781" class="fill-000000"></path><path d="M195.748 139.207c4.65 4.872 11.686 9.003 20.25 12.138.242.088.48.179.725.265.338.121.683.237 1.025.354.532.181 1.067.361 1.611.535.197.063.392.126.59.188 6.952 2.175 14.794 3.763 23.164 4.594.16.017.321.032.481.047.933.09 1.872.17 2.818.241.072.004.143.011.215.017 1.001.073 2.009.133 3.022.184.215.011.432.019.648.028a133.28 133.28 0 0 0 3.209.109c1 .022 2.002.037 3.011.037a136.379 136.379 0 0 0 3.84-.059c.795-.021 1.587-.051 2.376-.087.219-.009.438-.017.656-.028a133.968 133.968 0 0 0 3.254-.203c.935-.069 1.863-.149 2.785-.237l.51-.05c3.113-.31 6.156-.721 9.106-1.231l.005-.001a115.012 115.012 0 0 0 8.788-1.87c1.785-.455 3.519-.949 5.204-1.475.244-.076.485-.155.727-.232.488-.157.969-.317 1.448-.479.386-.132.771-.263 1.15-.397.166-.059.327-.121.491-.179 8.649-3.144 15.754-7.3 20.439-12.207.154-.162.33-.294.505-.431 3.228-3.567 5.032-7.449 5.032-11.484 0-16.608-30.369-30.64-66.317-30.64-35.943 0-66.309 14.032-66.309 30.64 0 4.035 1.803 7.914 5.029 11.48.178.136.356.27.512.433zm51.419-14.971c-1.584-1.989-2.386-4.38-2.386-7.196 0-2.859.901-5.259 2.7-7.197 1.799-1.947 4.186-3.057 7.166-3.351v-2.574h3.805v2.574c2.789.328 5.001 1.273 6.66 2.833 1.643 1.561 2.699 3.655 3.154 6.269l-6.653.855c-.405-2.056-1.461-3.443-3.161-4.173v10.202c4.209 1.127 7.082 2.597 8.601 4.387 1.526 1.808 2.286 4.116 2.286 6.935 0 3.153-.957 5.807-2.881 7.969-1.923 2.16-4.58 3.492-8.006 4.034v4.871h-3.805v-4.821c-3.005-.363-5.439-1.472-7.323-3.337-1.889-1.865-3.086-4.51-3.615-7.91l6.81-.805c.28 1.396.8 2.588 1.576 3.598.769 1.008 1.609 1.733 2.551 2.184v-10.925c-3.401-.979-5.894-2.45-7.479-4.422z" fill="#003781" class="fill-000000"></path></svg>